<?xml version="1.0" standalone="no"?>
<!DOCTYPE svg PUBLIC "-//W3C//DTD SVG 1.1//EN" "http://www.w3.org/Graphics/SVG/1.1/DTD/svg11.dtd" >
<svg xmlns="http://www.w3.org/2000/svg" xmlns:xlink="http://www.w3.org/1999/xlink" version="1.1">
<metadata></metadata>
<defs>
<font id="regloregular" horiz-adv-x="1011" >
<font-face units-per-em="2048" ascent="1575" descent="-473" />
<missing-glyph horiz-adv-x="819" />
<glyph horiz-adv-x="0" />
<glyph horiz-adv-x="682" />
<glyph unicode=" "  horiz-adv-x="819" />
<glyph unicode="&#x09;" horiz-adv-x="819" />
<glyph unicode="&#xa0;" horiz-adv-x="819" />
<glyph unicode="!" horiz-adv-x="626" d="M123 170q0 92 55 150.5t135 58.5q78 0 134.5 -55.5t56.5 -133.5t-56.5 -134t-134.5 -56q-76 0 -133 52.5t-57 117.5zM180 473v1102h266v-1102h-266z" />
<glyph unicode="&#x22;" horiz-adv-x="927" d="M123 989l2 529h285v-529h-287zM518 989l2 529h285v-529h-287z" />
<glyph unicode="#" horiz-adv-x="1236" d="M164 449v241h110l17 137h-127v242h160l59 449h266l-59 -449h139l59 449h267l-60 -449h78v-242h-110l-17 -137h127v-241h-160l-59 -449h-266l59 449h-139l-59 -449h-267l60 449h-78zM541 690h139l18 137h-139z" />
<glyph unicode="&#x26;" horiz-adv-x="1318" d="M102 457q0 182 117 305q-117 130 -117 307q0 190 134 324.5t323 134.5q125 0 230.5 -61.5t167 -167t61.5 -230.5h-287q0 74 -49 132.5t-123 58.5q-83 0 -136.5 -54t-53.5 -137q0 -71 55 -120.5t121 -51.5h672v-266h-199v-172q0 -76 57.5 -133.5t134.5 -57.5v-268 q-94 0 -178.5 35.5t-146.5 99.5q-135 -135 -326 -135q-189 0 -323 134t-134 323zM369 457q0 -82 53 -135.5t137 -53.5q78 0 134.5 58.5t56.5 130.5v174h-203q-66 0 -122 -51t-56 -123z" />
<glyph unicode="'" horiz-adv-x="532" d="M123 989l2 529h285v-529h-287z" />
<glyph unicode="(" horiz-adv-x="897" d="M205 303v940q0 164 116.5 280.5t280.5 116.5h90v-266h-90q-52 0 -92.5 -38.5t-40.5 -92.5v-940q0 -57 38 -94t95 -37h90v-266h-90q-164 0 -280.5 116.5t-116.5 280.5z" />
<glyph unicode=")" horiz-adv-x="897" d="M205 -94v266h88q57 0 95 37.5t38 93.5v940q0 55 -40 93t-93 38h-88v266h88q166 0 282.5 -116.5t116.5 -280.5v-940q0 -164 -116.5 -280.5t-282.5 -116.5h-88z" />
<glyph unicode="*" horiz-adv-x="964" d="M123 1075l184 88l-184 90l102 177l168 -113l-14 201l205 2l-15 -205l170 117l103 -181l-183 -86l183 -88l-103 -180l-170 115l17 -205l-207 2l14 201l-166 -113z" />
<glyph unicode="+" horiz-adv-x="1306" d="M184 481v264h336v336h266v-336h336v-264h-336v-338h-266v338h-336z" />
<glyph unicode="," horiz-adv-x="573" d="M41 -150l152 529h299l-191 -529h-260z" />
<glyph unicode="-" horiz-adv-x="937" d="M102 475v264h734v-264h-734z" />
<glyph unicode="." horiz-adv-x="544" d="M82 190q0 78 55.5 133.5t134.5 55.5q78 0 134.5 -55.5t56.5 -133.5t-56.5 -134t-134.5 -56q-79 0 -134.5 56t-55.5 134z" />
<glyph unicode="/" horiz-adv-x="993" d="M102 0l607 1518h264l-606 -1518h-265z" />
<glyph unicode="0" horiz-adv-x="1114" d="M102 444v625q0 190 133.5 324.5t319.5 134.5q189 0 323 -134.5t134 -324.5v-625q0 -186 -134 -319t-323 -133q-186 0 -319.5 133t-133.5 319zM367 629l301 594q-48 39 -113 39q-76 0 -132 -58t-56 -135v-440zM428 301q54 -45 127 -45q77 0 135 57t58 131v488z" />
<glyph unicode="1" horiz-adv-x="1114" d="M102 0v266h322v985h-322v267h588v-1252h322v-266h-910z" />
<glyph unicode="2" horiz-adv-x="1120" d="M102 0v211q0 185 113 343.5t346 266.5q191 90 191 248q0 76 -58 133.5t-133 57.5q-77 0 -134.5 -57.5t-57.5 -133.5h-267q0 125 61.5 230.5t167 167t230.5 61.5q189 0 323 -134.5t134 -324.5q0 -61 -12 -115t-30 -93t-47.5 -75.5t-55.5 -59.5t-63 -47t-61.5 -36.5 t-60 -30t-49.5 -24.5q-34 -18 -70.5 -45t-79 -68t-69.5 -95.5t-27 -111.5h625v-268h-916z" />
<glyph unicode="3" horiz-adv-x="1120" d="M102 449h267q0 -72 57 -130.5t135 -58.5q84 0 137.5 53.5t53.5 135.5q0 72 -56.5 123t-122.5 51h-114v266h114q68 2 123.5 51.5t55.5 120.5q0 83 -54 136.5t-137 53.5q-74 0 -123 -58t-49 -132h-287q0 125 61.5 230.5t167 167t230.5 61.5q189 0 323 -134.5t134 -324.5 q0 -177 -117 -307q117 -123 117 -305q0 -189 -134 -323t-323 -134q-190 0 -324.5 134t-134.5 323z" />
<glyph unicode="4" horiz-adv-x="1185" d="M102 455v262l545 801h266v-816h170v-247h-170v-455h-266v455h-545zM375 702h272v412z" />
<glyph unicode="5" horiz-adv-x="1114" d="M102 455h265q0 -78 55.5 -133.5t134.5 -55.5q77 0 134 57t57 132q0 76 -58 133t-133 57h-455v873h852v-267h-587v-340h190q189 0 322 -133t133 -323q0 -189 -133 -322t-322 -133t-322 133t-133 322z" />
<glyph unicode="6" horiz-adv-x="1120" d="M102 449v612q0 125 61.5 230.5t167 167t230.5 61.5q189 0 323 -134.5t134 -324.5h-266q0 76 -58 133t-133 57q-77 0 -134.5 -57t-57.5 -133v-191q1 0 25 7t31 9t29.5 7.5t36 7.5t33 4t37.5 2q189 0 323 -134t134 -324q0 -189 -134 -323t-323 -134q-190 0 -324.5 134 t-134.5 323zM369 449q0 -79 55.5 -134t136.5 -55q76 0 133.5 57t57.5 132q0 76 -58 134t-133 58q-76 0 -134 -55.5t-58 -136.5z" />
<glyph unicode="7" horiz-adv-x="1097" d="M102 0l588 1251h-588v267h893v-267l-587 -1251h-306z" />
<glyph unicode="8" horiz-adv-x="1120" d="M102 449q0 180 115 305q-115 131 -115 307q0 189 134.5 324t324.5 135q189 0 323 -135t134 -324q0 -177 -117 -307q117 -123 117 -305q0 -189 -134 -323t-323 -134q-190 0 -324.5 134t-134.5 323zM369 449q0 -78 56.5 -133.5t135.5 -55.5q76 0 133.5 57t57.5 132 q0 76 -57 134t-134 58t-134.5 -56.5t-57.5 -135.5zM369 1061q0 -78 56.5 -134.5t135.5 -56.5q77 0 134 57t57 134q0 75 -58 131.5t-133 56.5q-77 0 -134.5 -56t-57.5 -132z" />
<glyph unicode="9" horiz-adv-x="1120" d="M102 451h267q0 -76 57.5 -133.5t132.5 -57.5q77 0 135 57t58 134v190q-5 -2 -30.5 -9.5t-39 -11t-36.5 -8.5t-44.5 -7.5t-42.5 -2.5q-189 0 -323 134.5t-134 324.5t134 324.5t323 134.5q125 0 230.5 -61.5t167 -167t61.5 -230.5v-610q0 -125 -61.5 -230.5t-167 -167 t-230.5 -61.5q-189 0 -323 134.5t-134 324.5zM369 1061q0 -76 57.5 -133.5t132.5 -57.5q76 0 134.5 55.5t58.5 135.5t-55.5 135t-137.5 55q-77 0 -133.5 -56.5t-56.5 -133.5z" />
<glyph unicode=":" horiz-adv-x="544" d="M82 190q0 78 56 133.5t134 55.5q79 0 135 -55.5t56 -133.5t-56 -134t-135 -56q-78 0 -134 56t-56 134zM82 702q0 78 56 133.5t134 55.5q79 0 135 -55.5t56 -133.5t-56 -134t-135 -56q-78 0 -134 56t-56 134z" />
<glyph unicode=";" horiz-adv-x="571" d="M41 -150l152 529h299l-191 -529h-260zM139 702q0 78 55.5 133.5t133.5 55.5q79 0 134.5 -55.5t55.5 -133.5t-55.5 -134t-134.5 -56q-78 0 -133.5 56t-55.5 134z" />
<glyph unicode="&#x3c;" horiz-adv-x="1099" d="M154 471v338l792 375v-301l-532 -242l532 -244v-297z" />
<glyph unicode="=" horiz-adv-x="1306" d="M184 266v266h938v-266h-938zM184 684v264h938v-264h-938z" />
<glyph unicode="&#x3e;" horiz-adv-x="1099" d="M154 100v297l532 244l-532 242v301l792 -375v-338z" />
<glyph unicode="?" horiz-adv-x="1216" d="M123 1042q0 131 65 243t176.5 177.5t243.5 65.5q131 0 243 -65.5t177.5 -177.5t65.5 -243q0 -132 -65.5 -243.5t-177.5 -176.5t-243 -65v-121h-239v406h239q80 0 139.5 59.5t59.5 140.5t-60 140t-139 59q-80 0 -139 -59t-59 -140h-287zM303 190q0 78 56 133.5t133 55.5 q78 0 134 -55.5t56 -133.5t-56 -134t-134 -56q-77 0 -133 56t-56 134z" />
<glyph unicode="@" horiz-adv-x="1304" d="M102 276v637q3 128 79.5 235t202 167.5t269.5 60.5q236 0 390 -132.5t159 -330.5v-692h-264v74q-84 -84 -190 -84q-143 0 -232.5 88t-89.5 240q0 172 111.5 262t314.5 90h86v12q0 89 -82.5 149t-202.5 60q-115 0 -199.5 -60.5t-84.5 -148.5h-2v-627h2q0 -113 84.5 -188.5 t199.5 -75.5q93 0 171 35t114 98l229 -106q-49 -115 -194.5 -204t-319.5 -89q-128 0 -233 40.5t-174 112t-106.5 168.5t-37.5 209zM696 557q0 -49 29.5 -75.5t79.5 -26.5q55 0 94 38t39 115v60h-12h-38.5t-41.5 -2t-45 -6t-39 -12t-35 -19.5t-21.5 -30t-9.5 -41.5z" />
<glyph unicode="A" horiz-adv-x="1142" d="M20 0l371 1518h361l370 -1518h-266l-92 379h-385l-92 -379h-267zM440 625h265l-134 540z" />
<glyph unicode="B" horiz-adv-x="1114" d="M133 0v1518h453q189 0 322.5 -134t133.5 -323q0 -185 -135 -301q135 -119 135 -305q0 -123 -61 -228t-166 -166t-229 -61h-453zM397 266h189q77 0 133.5 56.5t56.5 132.5q0 77 -56 133.5t-134 56.5h-189v-379zM397 872h189q77 0 133.5 56.5t56.5 132.5q0 78 -56 134 t-134 56h-189v-379z" />
<glyph unicode="C" horiz-adv-x="1093" d="M92 444v625q0 190 133.5 324.5t319.5 134.5q189 0 322.5 -134.5t133.5 -324.5v-149h-266v149q-2 78 -58 135.5t-132 57.5q-76 -1 -132.5 -58.5t-56.5 -134.5v-625q1 -87 55.5 -137.5t133.5 -50.5q78 1 134 57t56 131v154h266v-154q0 -186 -133.5 -319t-322.5 -133 q-186 0 -319.5 133t-133.5 319z" />
<glyph unicode="D" horiz-adv-x="1134" d="M133 0v1518h453q189 0 322.5 -134t133.5 -323v-606q0 -123 -61 -228t-166 -166t-229 -61h-453zM399 266h187q78 2 135 57.5t57 131.5v606q-1 79 -57.5 134.5t-134.5 55.5h-187v-985z" />
<glyph unicode="E" d="M133 0v1518h776v-267h-512v-360h512v-264h-512v-361h512v-266h-776z" />
<glyph unicode="F" d="M133 0v1518h776v-267h-512v-360h512v-264h-512v-627h-264z" />
<glyph unicode="G" horiz-adv-x="1095" d="M92 455v606q0 93 36 177.5t97.5 145.5t145.5 97.5t176 36.5q189 0 323 -134t134 -323h-265q-1 78 -58 133t-134 55t-134 -57t-57 -131v-606q1 -76 58.5 -132.5t132.5 -56.5q79 1 135.5 56.5t56.5 132.5v153h-192v266h457v-419q0 -92 -36.5 -176t-97.5 -145.5 t-145.5 -97.5t-177.5 -36q-187 0 -321 134t-134 321z" />
<glyph unicode="H" horiz-adv-x="1175" d="M133 0v1518h264v-627h381v627h264v-1518h-264v627h-381v-627h-264z" />
<glyph unicode="I" horiz-adv-x="548" d="M141 0h267v1518h-267v-1518z" />
<glyph unicode="J" horiz-adv-x="1079" d="M68 444v154h266v-154q0 -75 57 -130.5t135 -57.5q78 0 132 50t55 138v1074h266v-1074q0 -186 -133.5 -319t-319.5 -133q-190 0 -324 133t-134 319z" />
<glyph unicode="K" horiz-adv-x="1138" d="M133 0v1518h266v-600l396 600h303l-434 -654l434 -864h-303l-320 635l-76 -123v-512h-266z" />
<glyph unicode="L" horiz-adv-x="978" d="M133 0v1518h266v-1252h512v-266h-778z" />
<glyph unicode="M" horiz-adv-x="1368" d="M133 0v1518h344l211 -723l225 723h322v-1518h-266v993l-131 -510h-303l-136 525v-1008h-266z" />
<glyph unicode="N" horiz-adv-x="1175" d="M133 0v1518h266l379 -897v897h264v-1518h-266l-379 897v-897h-264z" />
<glyph unicode="O" horiz-adv-x="1093" d="M92 444v625q0 190 133.5 324.5t319.5 134.5q189 0 322.5 -134.5t133.5 -324.5v-625q0 -186 -133.5 -319t-322.5 -133q-186 0 -319.5 133t-133.5 319zM356 444q1 -87 55.5 -137.5t133.5 -50.5q78 2 135 57.5t57 130.5v625q-2 78 -59 135.5t-133 57.5q-76 -1 -132.5 -58.5 t-56.5 -134.5v-625z" />
<glyph unicode="P" horiz-adv-x="1105" d="M133 0v1518h455q189 0 322.5 -134t133.5 -323v-57q0 -122 -61 -226.5t-166 -165.5t-229 -61h-189v-551h-266zM399 815h189q78 1 134 57.5t56 131.5v57q-2 79 -57 134.5t-133 55.5h-189v-436z" />
<glyph unicode="Q" horiz-adv-x="1093" d="M92 444v625q0 190 133.5 324.5t319.5 134.5q189 0 322.5 -134.5t133.5 -324.5v-625q0 -95 -38 -179.5t-105 -147.5q107 -120 107 -279h-260q-1 64 -35 104.5t-90 51.5l-35 -2q-186 0 -319.5 133t-133.5 319zM356 444q1 -87 55.5 -137.5t133.5 -50.5q78 2 135 57.5 t57 130.5v625q-2 78 -59 135.5t-133 57.5q-76 -1 -132.5 -58.5t-56.5 -134.5v-625z" />
<glyph unicode="R" horiz-adv-x="1136" d="M133 0v1518h453q190 0 324 -134t134 -323v-57q0 -130 -68.5 -239t-182.5 -165l262 -600h-305l-242 551h-109v-551h-266zM399 815h187q78 1 135 57.5t57 131.5v57q-1 79 -57.5 134.5t-134.5 55.5h-187v-436z" />
<glyph unicode="S" horiz-adv-x="1073" d="M82 455q0 -187 133.5 -321t319.5 -134q93 0 177 33t145.5 90.5t97.5 138.5t36 172q0 250 -282 406q-34 18 -95 47t-97.5 48t-77 45.5t-60 55.5t-19.5 62q0 75 47.5 114t127.5 39q77 0 132 -55.5t60 -134.5h264q0 189 -133.5 323t-322.5 134q-188 0 -320.5 -126 t-132.5 -313q0 -129 67 -227.5t168 -155.5q42 -24 105 -53t108.5 -50.5t89.5 -48t67.5 -58.5t23.5 -70q0 -66 -49.5 -108t-126.5 -42q-76 0 -131 56t-58 133h-264z" />
<glyph unicode="T" horiz-adv-x="991" d="M41 1251v267h909v-267h-321v-1251h-267v1251h-321z" />
<glyph unicode="U" horiz-adv-x="1155" d="M123 444v1074h264v-1074q1 -87 55 -137.5t133 -50.5q78 2 135.5 57.5t57.5 130.5v1074h264v-1074q0 -186 -134 -319t-323 -133q-186 0 -319 133t-133 319z" />
<glyph unicode="V" d="M41 1518h266l199 -1059l199 1059h266l-285 -1518h-360z" />
<glyph unicode="W" horiz-adv-x="1515" d="M37 1518h266l166 -957l156 957h266l156 -957l165 957h267l-285 -1518h-285l-151 864l-152 -864h-284z" />
<glyph unicode="X" horiz-adv-x="1064" d="M37 0l354 778l-354 740h285l210 -465l211 465h285l-354 -740l354 -778h-285l-211 487l-210 -487h-285z" />
<glyph unicode="Y" horiz-adv-x="1028" d="M20 1518h285l207 -555l211 555h285l-363 -910v-608h-266v608z" />
<glyph unicode="Z" horiz-adv-x="978" d="M82 0v266l530 985h-530v267h815v-267l-530 -985h530v-266h-815z" />
<glyph unicode="\" horiz-adv-x="1228" d="M256 1518h264l606 -1518h-264z" />
<glyph unicode="^" horiz-adv-x="1329" d="M123 725l371 793h337l375 -793h-301l-241 532l-244 -532h-297z" />
<glyph unicode="_" horiz-adv-x="1126" d="M0 -125h1126v-203h-1126v203z" />
<glyph unicode="`" horiz-adv-x="1032" d="M301 1556l164 -313h246l-125 313h-285z" />
<glyph unicode="a" horiz-adv-x="978" d="M61 319q0 171 111.5 261t314.5 90h123v90q0 59 -36.5 95t-96.5 36q-59 0 -95 -36.5t-36 -94.5h-266q0 178 109 287.5t288 109.5q178 0 287.5 -107t112.5 -282v-768h-267v86q-97 -94 -227 -94q-144 0 -233 87.5t-89 239.5zM332 338q0 -49 29 -77t79 -28q67 0 118.5 44.5 t51.5 111.5v60h-49q-31 0 -46 -0.5t-48 -3t-51.5 -9.5t-40.5 -18.5t-32.5 -32t-10.5 -47.5z" />
<glyph unicode="b" horiz-adv-x="1021" d="M123 0v1575h266v-494q79 76 189 76q146 1 246 -109q96 -105 96 -274v-14v-371v-14q0 -169 -96 -273q-100 -110 -246 -110q-110 0 -189 76v-68h-266zM389 389q0 -55 38.5 -94t94.5 -39q53 0 92 39t39 94v371q0 55 -39 93t-92 38q-56 0 -94.5 -38t-38.5 -93v-371z" />
<glyph unicode="c" horiz-adv-x="980" d="M102 379v389q3 162 119.5 275.5t280.5 113.5t280.5 -116.5t116.5 -280.5v-41h-266v41q0 56 -37.5 93.5t-93.5 37.5q-55 0 -94 -38t-39 -93v-371q0 -55 38.5 -94t94.5 -39t93.5 38.5t37.5 94.5v41h266v-41q0 -164 -116.5 -280.5t-280.5 -116.5q-163 0 -279 113t-121 274z " />
<glyph unicode="d" horiz-adv-x="1040" d="M102 389v371v12q0 170 110 276q114 110 280 109q85 0 161 -51v469h265v-1575h-265v74q-85 -82 -198 -82q-147 0 -252 110q-101 106 -101 274v13zM369 389q0 -55 42.5 -94t98.5 -39q58 0 100.5 39t42.5 94v371q0 55 -42.5 93t-100.5 38q-56 0 -98.5 -38t-42.5 -93v-371z " />
<glyph unicode="e" horiz-adv-x="1001" d="M102 389v371q0 164 117 280.5t283 116.5q164 0 280.5 -116.5t116.5 -280.5v-264h-530v-107q0 -67 37.5 -104t95.5 -37q60 0 100.5 37.5t40.5 103.5h256q0 -163 -122.5 -280t-287.5 -117q-118 0 -207 54t-134.5 143.5t-45.5 199.5zM369 717h274v43q0 66 -41.5 105.5 t-99.5 39.5q-56 0 -94.5 -39t-38.5 -106v-43z" />
<glyph unicode="f" horiz-adv-x="686" d="M51 909v240h115v27q0 166 116.5 282.5t280.5 116.5h133v-266h-133q-53 0 -92 -39t-39 -94v-27h227v-240h-227v-909h-266v909h-115z" />
<glyph unicode="g" horiz-adv-x="1021" d="M102 -76h267q0 -56 38 -94.5t93 -38.5q56 0 94.5 38t38.5 95v162q-89 -86 -209 -86q-155 0 -241 107q-81 101 -81 272v20v361v14q0 168 96 274q100 109 246 109q110 0 189 -76v66h266v-1223q0 -164 -116.5 -280.5t-282.5 -116.5q-164 0 -281 116.5t-117 280.5zM369 399 q0 -55 39 -94t92 -39q56 0 94.5 39t38.5 94v361q0 55 -38.5 93t-94.5 38q-53 0 -92 -38t-39 -93v-361z" />
<glyph unicode="h" horiz-adv-x="1040" d="M123 0v1575h264v-500q85 82 201 82q146 -1 250 -111q100 -106 100 -273v-13v-760h-266v760q0 55 -41 93t-101 38q-56 0 -99.5 -38.5t-43.5 -92.5v-760h-264z" />
<glyph unicode="i" horiz-adv-x="509" d="M92 1411q0 68 47.5 116t114.5 48q68 0 116 -48.5t48 -115.5q0 -66 -48 -113t-116 -47q-67 0 -114.5 47t-47.5 113zM121 0v1147h266v-1147h-266z" />
<glyph unicode="j" horiz-adv-x="516" d="M0 -209q56 0 94.5 38t38.5 95v1223h266v-1223q0 -164 -116.5 -280.5t-282.5 -116.5v264zM98 1411q0 68 47.5 116t114.5 48q66 0 115 -48.5t49 -115.5q0 -66 -49 -113t-115 -47q-67 0 -114.5 47t-47.5 113z" />
<glyph unicode="k" horiz-adv-x="944" d="M123 0v1575h264v-881l240 453h297l-293 -531l289 -616h-299l-234 522v-522h-264z" />
<glyph unicode="l" horiz-adv-x="512" d="M123 0v1575h266v-1575h-266z" />
<glyph unicode="m" horiz-adv-x="1591" d="M123 0v1149h266v-74q85 82 199 82q75 0 144 -32.5t118 -90.5q54 59 126.5 91t143.5 32q159 1 266 -109q103 -106 103 -275v-13v-760h-266v760q0 55 -41 93t-101 38q-55 0 -97.5 -37t-43.5 -90v-4v-760h-266v760q0 55 -42 93t-102 38q-55 0 -98 -38.5t-43 -92.5v-760h-266 z" />
<glyph unicode="n" horiz-adv-x="1040" d="M121 0v1147h266v-72q85 82 201 82q145 0 247.5 -110t102.5 -287v-760h-266v760q0 55 -41 93t-101 38q-56 0 -99.5 -38.5t-43.5 -92.5v-760h-266z" />
<glyph unicode="o" horiz-adv-x="1001" d="M102 397v361q0 164 117 280.5t281 116.5t280.5 -116.5t116.5 -280.5h2v-361h-2q0 -166 -116.5 -282.5t-280.5 -116.5t-281 117t-117 282zM367 397q0 -55 38.5 -94t94.5 -39q57 0 95 38.5t38 94.5h2v361h-2q0 55 -38.5 93t-94.5 38q-53 0 -93 -38t-40 -93v-361z" />
<glyph unicode="p" horiz-adv-x="1021" d="M123 -473v1622h266v-68q79 76 189 76q146 0 246 -109q96 -106 96 -274v-14v-369v-14q0 -169 -96 -275q-100 -110 -246 -110q-110 0 -189 76v-541h-266zM389 391q0 -55 38.5 -94t94.5 -39q53 0 92 39t39 94v369q0 55 -39 93t-92 38q-56 0 -94.5 -38t-38.5 -93v-369z" />
<glyph unicode="q" horiz-adv-x="1021" d="M102 389v371v14q0 168 96 274q100 109 246 109q110 0 189 -76v66h266v-1620h-266v541q-79 -76 -189 -76q-146 0 -246 110q-96 105 -96 273v14zM369 389q0 -55 39 -94t92 -39q56 0 94.5 39t38.5 94v371q0 55 -38.5 93t-94.5 38q-53 0 -92 -38t-39 -93v-371z" />
<glyph unicode="r" horiz-adv-x="700" d="M123 0v1147h266v-80q86 80 199 80h112v-264h-112q-40 0 -84 -19.5t-79.5 -65t-35.5 -106.5v-692h-266z" />
<glyph unicode="s" horiz-adv-x="876" d="M72 352v27h266v-27q0 -45 26.5 -74.5t75.5 -29.5q38 0 64 22t26 56q0 47 -58 85t-210 107q-83 36 -136.5 107t-53.5 178q0 146 107.5 250t258.5 104t259 -102.5t108 -247.5v-29h-266v29q0 45 -26.5 74.5t-74.5 29.5q-34 0 -62 -23t-28 -57q0 -15 9 -29t21.5 -24.5 t37.5 -24.5t45.5 -24t57.5 -28t63 -31q32 -16 55.5 -30t57.5 -42.5t56 -60t38 -79.5t16 -104q0 -160 -100.5 -257t-264.5 -97q-166 0 -267 97t-101 255z" />
<glyph unicode="t" horiz-adv-x="696" d="M20 909v240h113v295h266v-295h228v-240h-228v-510q0 -55 40 -94t93 -39h134v-266h-172q-166 0 -263.5 90t-97.5 252v567h-113z" />
<glyph unicode="u" horiz-adv-x="1040" d="M102 389v758h267v-758q0 -55 41 -94t100 -39q56 0 99.5 39t43.5 94v758h265v-1147h-265v74q-85 -82 -198 -82q-71 0 -135 28t-113 78t-77 126q-28 73 -28 159v6z" />
<glyph unicode="v" horiz-adv-x="856" d="M10 1147h266l156 -723l166 723h248l-266 -1147h-304z" />
<glyph unicode="w" horiz-adv-x="1499" d="M10 1147h266l160 -694l162 694h303l162 -694l160 694h266l-266 -1147h-303l-170 737l-170 -737h-304z" />
<glyph unicode="x" horiz-adv-x="894" d="M0 0l293 598l-293 549h299l150 -311l147 311h299l-293 -549l293 -598h-299l-147 344l-150 -344h-299z" />
<glyph unicode="y" horiz-adv-x="894" d="M0 1147h266l178 -678l170 678h260l-415 -1618h-248l117 471h-4z" />
<glyph unicode="z" horiz-adv-x="878" d="M61 0v238l424 653h-424v256h756v-236l-428 -655h428v-256h-756z" />
<glyph unicode="&#xa1;" horiz-adv-x="626" d="M123 987q0 65 57 117.5t133 52.5q78 0 134.5 -56t56.5 -134t-56.5 -133.5t-134.5 -55.5q-80 0 -135 58.5t-55 150.5zM180 -418v1102h266v-1102h-266z" />
<glyph unicode="&#xa8;" horiz-adv-x="1017" d="M225 1405q0 46 38 80.5t93 34.5t94 -34.5t39 -80.5q0 -48 -39 -82.5t-94 -34.5t-93 34.5t-38 82.5zM565 1405q0 46 38 80.5t93 34.5t94 -34.5t39 -80.5q0 -48 -39 -82.5t-94 -34.5t-93 34.5t-38 82.5z" />
<glyph unicode="&#xad;" horiz-adv-x="937" d="M102 475v264h734v-264h-734z" />
<glyph unicode="&#xb4;" horiz-adv-x="1032" d="M322 1243h245l164 313h-285z" />
<glyph unicode="&#xb7;" horiz-adv-x="665" d="M143 702q0 78 55.5 133.5t133.5 55.5q79 0 134.5 -55.5t55.5 -133.5t-55.5 -134t-134.5 -56q-78 0 -133.5 56t-55.5 134z" />
<glyph unicode="&#xbf;" horiz-adv-x="1228" d="M123 115h287q0 -81 59 -140t139 -59q79 0 139 59t60 140t-59.5 140.5t-139.5 59.5h-239v406h239v-121q131 0 243 -65t177.5 -176.5t65.5 -243.5q0 -131 -65.5 -243t-177.5 -177.5t-243 -65.5q-132 0 -243.5 65.5t-176.5 177.5t-65 243zM303 967q0 78 56 134t133 56 q78 0 134 -56t56 -134t-56 -133.5t-134 -55.5q-77 0 -133 55.5t-56 133.5z" />
<glyph unicode="&#xc0;" horiz-adv-x="1142" d="M20 0l371 1518h361l370 -1518h-266l-92 379h-385l-92 -379h-267zM291 1946h284l125 -314h-245zM440 625h265l-134 540z" />
<glyph unicode="&#xc2;" horiz-adv-x="1142" d="M20 0l371 1518h361l370 -1518h-266l-92 379h-385l-92 -379h-267zM254 1632l125 314h346l127 -314h-248l-51 238l-53 -238h-246zM440 625h265l-134 540z" />
<glyph unicode="&#xc8;" d="M133 0v1518h776v-267h-512v-360h512v-264h-512v-361h512v-266h-776zM223 1946h285l125 -314h-246z" />
<glyph unicode="&#xc9;" d="M133 0v1518h776v-267h-512v-360h512v-264h-512v-361h512v-266h-776zM326 1632l125 314h284l-164 -314h-245z" />
<glyph unicode="&#xca;" d="M133 0v1518h776v-267h-512v-360h512v-264h-512v-361h512v-266h-776zM236 1632l124 314h347l127 -314h-248l-51 238l-54 -238h-245z" />
<glyph unicode="&#xcb;" d="M133 0v1518h776v-267h-512v-360h512v-264h-512v-361h512v-266h-776zM231 1794q0 46 38 80.5t93 34.5t94.5 -34.5t39.5 -80.5q0 -48 -39.5 -82.5t-94.5 -34.5t-93 34.5t-38 82.5zM571 1794q0 46 38 80.5t93 34.5t94.5 -34.5t39.5 -80.5q0 -48 -39.5 -82.5t-94.5 -34.5 t-93 34.5t-38 82.5z" />
<glyph unicode="&#xcf;" horiz-adv-x="548" d="M-41 1794q0 46 38 80.5t93 34.5t94 -34.5t39 -80.5q0 -48 -39 -82.5t-94 -34.5t-93 34.5t-38 82.5zM141 0h267v1518h-267v-1518zM299 1794q0 46 38 80.5t93 34.5t94 -34.5t39 -80.5q0 -48 -39 -82.5t-94 -34.5t-93 34.5t-38 82.5z" />
<glyph unicode="&#xe0;" horiz-adv-x="978" d="M61 319q0 171 111.5 261t314.5 90h123v90q0 59 -36.5 95t-96.5 36q-59 0 -95 -36.5t-36 -94.5h-266q0 178 109 287.5t288 109.5q178 0 287.5 -107t112.5 -282v-768h-267v86q-97 -94 -227 -94q-144 0 -233 87.5t-89 239.5zM254 1556h285l125 -313h-246zM332 338 q0 -49 29 -77t79 -28q67 0 118.5 44.5t51.5 111.5v60h-49q-31 0 -46 -0.5t-48 -3t-51.5 -9.5t-40.5 -18.5t-32.5 -32t-10.5 -47.5z" />
<glyph unicode="&#xe1;" horiz-adv-x="978" d="M61 319q0 171 111.5 261t314.5 90h123v90q0 59 -36.5 95t-96.5 36q-59 0 -95 -36.5t-36 -94.5h-266q0 178 109 287.5t288 109.5q178 0 287.5 -107t112.5 -282v-768h-267v86q-97 -94 -227 -94q-144 0 -233 87.5t-89 239.5zM332 338q0 -49 29 -77t79 -28q67 0 118.5 44.5 t51.5 111.5v60h-49q-31 0 -46 -0.5t-48 -3t-51.5 -9.5t-40.5 -18.5t-32.5 -32t-10.5 -47.5zM358 1243l125 313h285l-164 -313h-246z" />
<glyph unicode="&#xe2;" horiz-adv-x="978" d="M61 319q0 171 111.5 261t314.5 90h123v90q0 59 -36.5 95t-96.5 36q-59 0 -95 -36.5t-36 -94.5h-266q0 178 109 287.5t288 109.5q178 0 287.5 -107t112.5 -282v-768h-267v86q-97 -94 -227 -94q-144 0 -233 87.5t-89 239.5zM178 1243l125 313h346l127 -313h-248l-51 238 l-53 -238h-246zM332 338q0 -49 29 -77t79 -28q67 0 118.5 44.5t51.5 111.5v60h-49q-31 0 -46 -0.5t-48 -3t-51.5 -9.5t-40.5 -18.5t-32.5 -32t-10.5 -47.5z" />
<glyph unicode="&#xe8;" horiz-adv-x="1001" d="M102 389v371q0 164 117 280.5t283 116.5q164 0 280.5 -116.5t116.5 -280.5v-264h-530v-107q0 -67 37.5 -104t95.5 -37q60 0 100.5 37.5t40.5 103.5h256q0 -163 -122.5 -280t-287.5 -117q-118 0 -207 54t-134.5 143.5t-45.5 199.5zM279 1556h284l125 -313h-246zM369 717 h274v43q0 66 -41.5 105.5t-99.5 39.5q-56 0 -94.5 -39t-38.5 -106v-43z" />
<glyph unicode="&#xe9;" horiz-adv-x="1001" d="M102 389v371q0 164 117 280.5t283 116.5q164 0 280.5 -116.5t116.5 -280.5v-264h-530v-107q0 -67 37.5 -104t95.5 -37q60 0 100.5 37.5t40.5 103.5h256q0 -163 -122.5 -280t-287.5 -117q-118 0 -207 54t-134.5 143.5t-45.5 199.5zM369 717h274v43q0 66 -41.5 105.5 t-99.5 39.5q-56 0 -94.5 -39t-38.5 -106v-43zM383 1243l125 313h285l-164 -313h-246z" />
<glyph unicode="&#xea;" horiz-adv-x="1001" d="M102 389v371q0 164 117 280.5t283 116.5q164 0 280.5 -116.5t116.5 -280.5v-264h-530v-107q0 -67 37.5 -104t95.5 -37q60 0 100.5 37.5t40.5 103.5h256q0 -163 -122.5 -280t-287.5 -117q-118 0 -207 54t-134.5 143.5t-45.5 199.5zM203 1243l125 313h346l127 -313h-248 l-51 238l-53 -238h-246zM369 717h274v43q0 66 -41.5 105.5t-99.5 39.5q-56 0 -94.5 -39t-38.5 -106v-43z" />
<glyph unicode="&#xeb;" horiz-adv-x="1001" d="M102 389v371q0 164 117 280.5t283 116.5q164 0 280.5 -116.5t116.5 -280.5v-264h-530v-107q0 -67 37.5 -104t95.5 -37q60 0 100.5 37.5t40.5 103.5h256q0 -163 -122.5 -280t-287.5 -117q-118 0 -207 54t-134.5 143.5t-45.5 199.5zM199 1405q0 46 38 80.5t93 34.5 t94 -34.5t39 -80.5q0 -48 -39 -82.5t-94 -34.5t-93 34.5t-38 82.5zM369 717h274v43q0 66 -41.5 105.5t-99.5 39.5q-56 0 -94.5 -39t-38.5 -106v-43zM539 1405q0 46 38 80.5t93 34.5t94 -34.5t39 -80.5q0 -48 -39 -82.5t-94 -34.5t-93 34.5t-38 82.5z" />
<glyph unicode="&#x2c6;" horiz-adv-x="1017" d="M231 1243l125 313h346l127 -313h-247l-52 238l-53 -238h-246z" />
<glyph unicode="&#x2000;" horiz-adv-x="973" />
<glyph unicode="&#x2001;" horiz-adv-x="1946" />
<glyph unicode="&#x2002;" horiz-adv-x="973" />
<glyph unicode="&#x2003;" horiz-adv-x="1946" />
<glyph unicode="&#x2004;" horiz-adv-x="648" />
<glyph unicode="&#x2005;" horiz-adv-x="486" />
<glyph unicode="&#x2006;" horiz-adv-x="324" />
<glyph unicode="&#x2007;" horiz-adv-x="324" />
<glyph unicode="&#x2008;" horiz-adv-x="243" />
<glyph unicode="&#x2009;" horiz-adv-x="389" />
<glyph unicode="&#x200a;" horiz-adv-x="108" />
<glyph unicode="&#x2010;" horiz-adv-x="937" d="M102 475v264h734v-264h-734z" />
<glyph unicode="&#x2011;" horiz-adv-x="937" d="M102 475v264h734v-264h-734z" />
<glyph unicode="&#x2012;" horiz-adv-x="937" d="M102 475v264h734v-264h-734z" />
<glyph unicode="&#x2013;" horiz-adv-x="1228" d="M102 475v264h1024v-264h-1024z" />
<glyph unicode="&#x2014;" horiz-adv-x="1794" d="M102 475v264h1590v-264h-1590z" />
<glyph unicode="&#x2018;" horiz-adv-x="595" d="M82 989l190 529h263l-152 -529h-301z" />
<glyph unicode="&#x2019;" horiz-adv-x="595" d="M61 989l152 529h301l-190 -529h-263z" />
<glyph unicode="&#x201c;" horiz-adv-x="931" d="M82 989l227 529h223l-151 -529h-299zM457 989l190 529h223l-112 -529h-301z" />
<glyph unicode="&#x201d;" horiz-adv-x="931" d="M61 989l113 529h301l-190 -529h-224zM399 989l152 529h299l-227 -529h-224z" />
<glyph unicode="&#x2022;" horiz-adv-x="978" d="M184 610q0 125 89 212t216 87q125 0 215.5 -87.5t90.5 -211.5q0 -126 -90.5 -215.5t-215.5 -89.5q-127 0 -216 89.5t-89 215.5z" />
<glyph unicode="&#x2026;" horiz-adv-x="1536" d="M82 190q0 78 55.5 133.5t134.5 55.5q78 0 134.5 -55.5t56.5 -133.5t-56.5 -134t-134.5 -56q-79 0 -134.5 56t-55.5 134zM578 190q0 78 55.5 133.5t134.5 55.5q78 0 134 -55.5t56 -133.5t-56 -134t-134 -56q-79 0 -134.5 56t-55.5 134zM1073 190q0 78 56 133.5t135 55.5 q78 0 134 -55.5t56 -133.5t-56 -134t-134 -56q-79 0 -135 56t-56 134z" />
<glyph unicode="&#x202f;" horiz-adv-x="389" />
<glyph unicode="&#x205f;" horiz-adv-x="486" />
<glyph unicode="&#x25fc;" horiz-adv-x="1146" d="M0 0v1147h1147v-1147h-1147z" />
</font>
</defs>
</svg>
